<svg id="Layer_1" data-name="Layer 1" xmlns="http://www.w3.org/2000/svg" viewBox="0 0 200 200"><defs><style>.cls-1{fill:#fff;fill-rule:evenodd;}</style></defs><title>p-share app icons</title><path class="cls-1" d="M137.28513,69.23527H112.80129a2.75459,2.75459,0,0,0,0,5.50816h24.48384a11.04187,11.04187,0,0,1,10.9202,11.13447v33.32957a11.04456,11.04456,0,0,1-10.9202,11.13938h-22.141l9.57071-6.70922a2.78722,2.78722,0,0,0,.69286-3.82963,2.66719,2.66719,0,0,0-3.75635-.70759L104.918,130.83294c-.02534.01723-.04224.04184-.06639.0603a2.692,2.692,0,0,0-.36814.3298c-.0507.05661-.09415.11568-.14124.17474a3.19687,3.19687,0,0,0-.21363.31627c-.03742.06768-.07485.1329-.10744.20305a2.39265,2.39265,0,0,0-.14.37779c-.02174.06645-.04466.12921-.06156.19567a2.82293,2.82293,0,0,0-.06638.55623c0,.01969-.00725.03692-.00725.0566s.00725.03692.00725.05661a2.71268,2.71268,0,0,0,.06638.555c.0169.06769.03982.12922.06156.19567a2.58457,2.58457,0,0,0,.14.379c.03259.06892.07.13414.10744.20059a2.65447,2.65447,0,0,0,.21727.32119c.04466.05784.0869.11567.13639.16859a2.80375,2.80375,0,0,0,.385.347c.01933.01354.0314.032.0507.04553l16.73337,11.73131a2.64757,2.64757,0,0,0,1.52813.48609,2.682,2.682,0,0,0,2.22822-1.19492,2.78556,2.78556,0,0,0-.69407-3.82839l-9.5695-6.708h22.14216a16.50529,16.50529,0,0,0,16.32176-16.64756V85.8779A16.50439,16.50439,0,0,0,137.28513,69.23527Z"/><path class="cls-1" d="M64.94742,135.82854H89.43127a2.75459,2.75459,0,0,0,0-5.50816H64.94742a11.04186,11.04186,0,0,1-10.92019-11.13447V85.85634A11.04455,11.04455,0,0,1,64.94742,74.717h22.141l-9.57072,6.70922a2.78721,2.78721,0,0,0-.69285,3.82963,2.66718,2.66718,0,0,0,3.75634.70759L97.31452,74.23087c.02535-.01723.04224-.04184.06639-.0603a2.692,2.692,0,0,0,.36814-.3298c.0507-.05661.09416-.11568.14124-.17474a3.19694,3.19694,0,0,0,.21364-.31627c.03741-.06768.07484-.1329.10743-.203a2.39313,2.39313,0,0,0,.14-.3778c.02174-.06645.04466-.12921.06156-.19567a2.82368,2.82368,0,0,0,.06639-.55623c0-.01969.00725-.03692.00725-.0566s-.00725-.03692-.00725-.05661a2.71338,2.71338,0,0,0-.06639-.555c-.0169-.06768-.03982-.12921-.06156-.19567a2.58457,2.58457,0,0,0-.14-.379c-.03259-.06892-.07-.13414-.10743-.20059a2.65454,2.65454,0,0,0-.21728-.32119c-.04466-.05783-.0869-.11567-.13639-.16859a2.80258,2.80258,0,0,0-.385-.347c-.01932-.01354-.03139-.032-.0507-.04553L80.58115,57.95988A2.64756,2.64756,0,0,0,79.053,57.4738a2.682,2.682,0,0,0-2.22821,1.19491,2.78555,2.78555,0,0,0,.69406,3.82839l9.56951,6.708H64.94621A16.5053,16.5053,0,0,0,48.62445,85.85266v33.33325A16.50439,16.50439,0,0,0,64.94742,135.82854Z"/></svg>