<svg id="Layer_1" data-name="Layer 1" xmlns="http://www.w3.org/2000/svg" viewBox="0 0 200 200"><defs><style>.cls-1,.cls-2{fill:#606060;}.cls-1{fill-rule:evenodd;}</style></defs><title>p-share app icons</title><path class="cls-1" d="M155.693,160.88459V23.45569H42.294V176.54431l101.15707-.15953.001-.03842c.06661.00485.12354.03859.19154.03859a2.79241,2.79241,0,0,0,0-5.58482c-.01124,0-.02041.00623-.03166.00641l.00017-.00312-95.68039.15954V29.037H150.05521v131.815c-.001.03132-.018.05745-.018.08911a2.83359,2.83359,0,0,0,5.66718,0C155.7044,160.9211,155.69332,160.90449,155.693,160.88459Z"/><path class="cls-2" d="M94.74673,70.22071a2.8433,2.8433,0,0,1-2.835,2.835H57.89206a2.84331,2.84331,0,0,1-2.835-2.835h0a2.84331,2.84331,0,0,1,2.835-2.835h34.0197a2.8433,2.8433,0,0,1,2.835,2.835Z"/><path class="cls-2" d="M83.40684,41.871a2.84331,2.84331,0,0,1-2.835,2.835H57.89206a2.84331,2.84331,0,0,1-2.835-2.835h0a2.84331,2.84331,0,0,1,2.835-2.835h22.6798a2.84331,2.84331,0,0,1,2.835,2.835Z"/><path class="cls-2" d="M110.0438,41.871a2.84331,2.84331,0,0,1-2.835,2.835H91.98674a2.84331,2.84331,0,0,1-2.835-2.835h0a2.84331,2.84331,0,0,1,2.835-2.835h15.22209a2.84331,2.84331,0,0,1,2.835,2.835Z"/><path class="cls-2" d="M117.94444,70.22071a2.84331,2.84331,0,0,1-2.835,2.835H103.49431a2.84331,2.84331,0,0,1-2.835-2.835h0a2.84331,2.84331,0,0,1,2.835-2.835h11.61515a2.84331,2.84331,0,0,1,2.835,2.835Z"/><path class="cls-2" d="M73.40376,56.04584a2.84331,2.84331,0,0,1-2.835,2.835H57.89206a2.84331,2.84331,0,0,1-2.835-2.835h0a2.8433,2.8433,0,0,1,2.835-2.835H70.56879a2.8433,2.8433,0,0,1,2.835,2.835Z"/><path class="cls-2" d="M106.49246,56.04584a2.84331,2.84331,0,0,1-2.835,2.835H82.17682a2.84331,2.84331,0,0,1-2.835-2.835h0a2.8433,2.8433,0,0,1,2.835-2.835h21.48067a2.8433,2.8433,0,0,1,2.835,2.835Z"/><path class="cls-2" d="M133.86152,56.04584a2.84331,2.84331,0,0,1-2.835,2.835h-15.761a2.84331,2.84331,0,0,1-2.835-2.835h0a2.8433,2.8433,0,0,1,2.835-2.835h15.761a2.8433,2.8433,0,0,1,2.835,2.835Z"/><path class="cls-2" d="M142.9413,41.871a2.84331,2.84331,0,0,1-2.835,2.835H119.82087a2.84331,2.84331,0,0,1-2.835-2.835h0a2.84331,2.84331,0,0,1,2.835-2.835h20.28546a2.84331,2.84331,0,0,1,2.835,2.835Z"/></svg>