<svg id="Layer_1" data-name="Layer 1" xmlns="http://www.w3.org/2000/svg" xmlns:xlink="http://www.w3.org/1999/xlink" viewBox="0 0 32 32"><defs><style>.cls-1{fill:#606060;}.cls-2,.cls-3{fill:#fff;}.cls-2{fill-rule:evenodd;}.cls-4{clip-path:url(#clip-path);}.cls-5{clip-path:url(#clip-path-2);}</style><clipPath id="clip-path"><path class="cls-1" d="M-1272.21461,2658.626a58.16885,58.16885,0,0,1-58.18182-58.18182,58.16887,58.16887,0,0,1,58.18182-58.18182,58.16884,58.16884,0,0,1,58.18181,58.18182A58.16882,58.16882,0,0,1-1272.21461,2658.626Zm117.27894-44.47292-7.67556-7.91363a99.11838,99.11838,0,0,0,0-23.03256l7.67556-7.8648c4.57961-4.66512,12.79246-10.84462,10.234-16.731l-10.51542-24.42472c-2.55849-5.88638-12.99712-4.66514-19.67476-4.88507l-11.33417-.39076a108.24662,108.24662,0,0,0-16.98839-16.26693l-.35817-10.82018c-.20468-6.35043,1.10009-16.34013-5.117-18.7826l-25.585-10.13632c-6.1404-2.44248-12.66457,5.49562-17.52565,9.76988l-8.264,7.32753a113.83986,113.83986,0,0,0-24.15212,0l-8.21278-7.32753c-4.86113-4.34757-11.35971-12.21236-17.52567-9.76988l-25.58494,10.03857c-6.166,2.44247-4.86113,12.43228-5.117,18.78272l-.40937,10.79576a108.28489,108.28489,0,0,0-17.06514,16.2425l-11.30855.34186c-6.65209.19538-17.11632-1.05018-19.67482,4.885l-10.61775,24.42484c-2.55849,5.86193,5.75661,12.06586,10.234,16.70656l7.67548,7.88922a99.10462,99.10462,0,0,0,0,23.057l-7.67548,7.86477c-4.55412,4.64071-12.79247,10.82018-10.234,16.70656l10.51541,24.42479c2.5585,5.88637,13.02274,4.66513,19.70041,4.885l11.283.36637a108.24305,108.24305,0,0,0,17.03957,16.31576l.33261,10.77132c.20468,6.35046-1.10016,16.36462,5.117,18.80709l25.58493,10.13629c6.14039,2.44248,12.639-5.49558,17.5001-9.76992l8.28953-7.32743a113.86939,113.86939,0,0,0,24.10106,0l8.23831,7.32743c4.88669,4.372,11.334,12.2124,17.5,9.76992l25.585-10.03859c6.166-2.44247,4.88669-12.40778,5.117-18.80709l.38377-10.79575a108.30033,108.30033,0,0,0,17.0908-16.24248l11.30844-.34194c6.65216-.1954,17.142,1.05026,19.70048-4.885l10.61772-24.42479C-1142.06653,2625.04654-1150.40713,2618.84265-1154.93567,2614.1531Z"/></clipPath><clipPath id="clip-path-2"><path class="cls-1" d="M-1041.56808,2562.626a29.08442,29.08442,0,0,1-29.09091-29.09091,29.08444,29.08444,0,0,1,29.09091-29.09091,29.08443,29.08443,0,0,1,29.09091,29.09091A29.08442,29.08442,0,0,1-1041.56808,2562.626Zm58.63947-22.23646-3.83778-3.95681a49.55919,49.55919,0,0,0,0-11.51628l3.83778-3.9324c2.2898-2.33256,6.39623-5.42231,5.117-8.36549l-5.25771-12.21237c-1.27924-2.94319-6.49856-2.33257-9.83738-2.44253l-5.66708-.19538a54.12337,54.12337,0,0,0-8.4942-8.13347l-.17908-5.41009c-.10234-3.17521.55-8.17006-2.55849-9.3913l-12.79249-5.06816c-3.0702-1.22123-6.33229,2.74782-8.76283,4.885l-4.132,3.66376a56.92059,56.92059,0,0,0-12.07606,0l-4.10639-3.66376c-2.43057-2.17379-5.67986-6.10618-8.76284-4.885l-12.79246,5.01929c-3.083,1.22123-2.43057,6.21614-2.5585,9.39136l-.20468,5.39788a54.142,54.142,0,0,0-8.53257,8.12125l-5.65428.17093c-3.326.09769-8.55816-.52509-9.83741,2.44248l-5.30887,12.21242c-1.27925,2.931,2.87831,6.03293,5.117,8.35328l3.83774,3.94461a49.55282,49.55282,0,0,0,0,11.52848l-3.83774,3.93239c-2.27706,2.32035-6.39624,5.41009-5.117,8.35328l5.25771,12.21239c1.27924,2.94319,6.51136,2.33257,9.8502,2.44248l5.64148.18318a54.12083,54.12083,0,0,0,8.51978,8.15788l.1663,5.38566c.10234,3.17523-.55007,8.18231,2.55849,9.40355l12.79247,5.06814c3.0702,1.22124,6.31948-2.74779,8.75-4.885l4.14476-3.66371a56.93479,56.93479,0,0,0,12.05054,0l4.11915,3.66371c2.44335,2.186,5.667,6.1062,8.75,4.885l12.79249-5.01929c3.083-1.22124,2.44335-6.20389,2.55849-9.40354l.19189-5.39788a54.15038,54.15038,0,0,0,8.5454-8.12124l5.65422-.171c3.32608-.0977,8.571.52513,9.85024-2.44248l5.30886-12.21239C-976.494,2545.83628-980.66434,2542.73433-982.92861,2540.38955Z"/></clipPath></defs><title>p-share app icons</title><path class="cls-2" d="M27.85066,28.72666V0H4.147V32l21.14479-.03335.00022-.008c.01392.001.02582.00807.04.00807a.5837.5837,0,0,0,0-1.16739l-.00662.00134,0-.00065-20,.03334V1.16667H26.6722V28.71986c-.00022.00655-.00376.012-.00376.01863a.59231.59231,0,0,0,1.18461,0Z"/><path class="cls-3" d="M15.11111,9.77526a.59434.59434,0,0,1-.59259.59259H7.40741a.59434.59434,0,0,1-.5926-.59259h0a.59433.59433,0,0,1,.5926-.59259h7.11111a.59433.59433,0,0,1,.59259.59259Z"/><path class="cls-3" d="M12.74074,3.84933a.59434.59434,0,0,1-.59259.5926H7.40741a.59434.59434,0,0,1-.5926-.5926h0a.59434.59434,0,0,1,.5926-.59259h4.74074a.59434.59434,0,0,1,.59259.59259Z"/><path class="cls-3" d="M18.30865,3.84933a.59434.59434,0,0,1-.5926.5926H14.53419a.59433.59433,0,0,1-.59259-.5926h0a.59433.59433,0,0,1,.59259-.59259h3.18186a.59434.59434,0,0,1,.5926.59259Z"/><path class="cls-3" d="M19.96011,9.77526a.59434.59434,0,0,1-.59259.59259H16.93961a.59433.59433,0,0,1-.59259-.59259h0a.59433.59433,0,0,1,.59259-.59259h2.42791a.59433.59433,0,0,1,.59259.59259Z"/><path class="cls-3" d="M10.64981,6.8123a.59434.59434,0,0,1-.5926.59259H7.40741a.59434.59434,0,0,1-.5926-.59259h0a.59434.59434,0,0,1,.5926-.5926h2.6498a.59434.59434,0,0,1,.5926.5926Z"/><path class="cls-3" d="M17.56631,6.8123a.59433.59433,0,0,1-.59259.59259H12.48363A.59434.59434,0,0,1,11.891,6.8123h0a.59434.59434,0,0,1,.59259-.5926h4.49009a.59433.59433,0,0,1,.59259.5926Z"/><path class="cls-3" d="M23.28725,6.8123a.59434.59434,0,0,1-.5926.59259H19.40014a.59433.59433,0,0,1-.59259-.59259h0a.59433.59433,0,0,1,.59259-.5926h3.29451a.59434.59434,0,0,1,.5926.5926Z"/><path class="cls-3" d="M25.18519,3.84933a.59434.59434,0,0,1-.5926.5926H20.35234a.59433.59433,0,0,1-.59259-.5926h0a.59433.59433,0,0,1,.59259-.59259h4.24025a.59434.59434,0,0,1,.5926.59259Z"/><path class="cls-1" d="M-1272.21461,2658.626a58.16885,58.16885,0,0,1-58.18182-58.18182,58.16887,58.16887,0,0,1,58.18182-58.18182,58.16884,58.16884,0,0,1,58.18181,58.18182A58.16882,58.16882,0,0,1-1272.21461,2658.626Zm117.27894-44.47292-7.67556-7.91363a99.11838,99.11838,0,0,0,0-23.03256l7.67556-7.8648c4.57961-4.66512,12.79246-10.84462,10.234-16.731l-10.51542-24.42472c-2.55849-5.88638-12.99712-4.66514-19.67476-4.88507l-11.33417-.39076a108.24662,108.24662,0,0,0-16.98839-16.26693l-.35817-10.82018c-.20468-6.35043,1.10009-16.34013-5.117-18.7826l-25.585-10.13632c-6.1404-2.44248-12.66457,5.49562-17.52565,9.76988l-8.264,7.32753a113.83986,113.83986,0,0,0-24.15212,0l-8.21278-7.32753c-4.86113-4.34757-11.35971-12.21236-17.52567-9.76988l-25.58494,10.03857c-6.166,2.44247-4.86113,12.43228-5.117,18.78272l-.40937,10.79576a108.28489,108.28489,0,0,0-17.06514,16.2425l-11.30855.34186c-6.65209.19538-17.11632-1.05018-19.67482,4.885l-10.61775,24.42484c-2.55849,5.86193,5.75661,12.06586,10.234,16.70656l7.67548,7.88922a99.10462,99.10462,0,0,0,0,23.057l-7.67548,7.86477c-4.55412,4.64071-12.79247,10.82018-10.234,16.70656l10.51541,24.42479c2.5585,5.88637,13.02274,4.66513,19.70041,4.885l11.283.36637a108.24305,108.24305,0,0,0,17.03957,16.31576l.33261,10.77132c.20468,6.35046-1.10016,16.36462,5.117,18.80709l25.58493,10.13629c6.14039,2.44248,12.639-5.49558,17.5001-9.76992l8.28953-7.32743a113.86939,113.86939,0,0,0,24.10106,0l8.23831,7.32743c4.88669,4.372,11.334,12.2124,17.5,9.76992l25.585-10.03859c6.166-2.44247,4.88669-12.40778,5.117-18.80709l.38377-10.79575a108.30033,108.30033,0,0,0,17.0908-16.24248l11.30844-.34194c6.65216-.1954,17.142,1.05026,19.70048-4.885l10.61772-24.42479C-1142.06653,2625.04654-1150.40713,2618.84265-1154.93567,2614.1531Z"/><g class="cls-4"><rect class="cls-1" x="-1598.0328" y="-5289.01045" width="16651.63659" height="8936.72739"/></g><path class="cls-1" d="M-1041.56808,2562.626a29.08442,29.08442,0,0,1-29.09091-29.09091,29.08444,29.08444,0,0,1,29.09091-29.09091,29.08443,29.08443,0,0,1,29.09091,29.09091A29.08442,29.08442,0,0,1-1041.56808,2562.626Zm58.63947-22.23646-3.83778-3.95681a49.55919,49.55919,0,0,0,0-11.51628l3.83778-3.9324c2.2898-2.33256,6.39623-5.42231,5.117-8.36549l-5.25771-12.21237c-1.27924-2.94319-6.49856-2.33257-9.83738-2.44253l-5.66708-.19538a54.12337,54.12337,0,0,0-8.4942-8.13347l-.17908-5.41009c-.10234-3.17521.55-8.17006-2.55849-9.3913l-12.79249-5.06816c-3.0702-1.22123-6.33229,2.74782-8.76283,4.885l-4.132,3.66376a56.92059,56.92059,0,0,0-12.07606,0l-4.10639-3.66376c-2.43057-2.17379-5.67986-6.10618-8.76284-4.885l-12.79246,5.01929c-3.083,1.22123-2.43057,6.21614-2.5585,9.39136l-.20468,5.39788a54.142,54.142,0,0,0-8.53257,8.12125l-5.65428.17093c-3.326.09769-8.55816-.52509-9.83741,2.44248l-5.30887,12.21242c-1.27925,2.931,2.87831,6.03293,5.117,8.35328l3.83774,3.94461a49.55282,49.55282,0,0,0,0,11.52848l-3.83774,3.93239c-2.27706,2.32035-6.39624,5.41009-5.117,8.35328l5.25771,12.21239c1.27924,2.94319,6.51136,2.33257,9.8502,2.44248l5.64148.18318a54.12083,54.12083,0,0,0,8.51978,8.15788l.1663,5.38566c.10234,3.17523-.55007,8.18231,2.55849,9.40355l12.79247,5.06814c3.0702,1.22124,6.31948-2.74779,8.75-4.885l4.14476-3.66371a56.93479,56.93479,0,0,0,12.05054,0l4.11915,3.66371c2.44335,2.186,5.667,6.1062,8.75,4.885l12.79249-5.01929c3.083-1.22124,2.44335-6.20389,2.55849-9.40354l.19189-5.39788a54.15038,54.15038,0,0,0,8.5454-8.12124l5.65422-.171c3.32608-.0977,8.571.52513,9.85024-2.44248l5.30886-12.21239C-976.494,2545.83628-980.66434,2542.73433-982.92861,2540.38955Z"/><g class="cls-5"><rect class="cls-1" x="-1204.47717" y="-1411.19217" width="8325.81819" height="4468.36364"/></g></svg>