<svg id="Layer_1" data-name="Layer 1" xmlns="http://www.w3.org/2000/svg" viewBox="0 0 200 200"><defs><style>.cls-1,.cls-2{fill:#606060;}.cls-2{fill-rule:evenodd;}</style></defs><title>p-share app icons</title><path class="cls-1" d="M70.79011,72.25986a2.84331,2.84331,0,0,1-2.835,2.835H47.66968a2.84331,2.84331,0,0,1-2.835-2.835h0a2.84331,2.84331,0,0,1,2.835-2.835H67.95514a2.84331,2.84331,0,0,1,2.835,2.835Z"/><path class="cls-1" d="M70.79011,167.38569a3.539,3.539,0,0,1-3.52862-3.52862v-8.239a3.539,3.539,0,0,1,3.52862-3.52862h0a3.539,3.539,0,0,1,3.52863,3.52862v8.239a3.539,3.539,0,0,1-3.52863,3.52862Z"/><path class="cls-1" d="M131.57712,167.38569a3.539,3.539,0,0,1-3.52863-3.52862v-8.239a3.539,3.539,0,0,1,3.52863-3.52862h0a3.539,3.539,0,0,1,3.52863,3.52862v8.239a3.539,3.539,0,0,1-3.52863,3.52862Z"/><path class="cls-1" d="M70.79011,127.37687a2.8433,2.8433,0,0,1-2.835,2.835H47.66968a2.8433,2.8433,0,0,1-2.835-2.835h0a2.8433,2.8433,0,0,1,2.835-2.835H67.95514a2.8433,2.8433,0,0,1,2.835,2.835Z"/><path class="cls-2" d="M42.11891,42.61431V157.02242H156.527V42.61431ZM149.6211,150.1165H49.02483V49.52023H149.6211Z"/><path class="cls-1" d="M131.60973,91.64277a8.57052,8.57052,0,1,0-12.09917,7.79255v15.315a3.52858,3.52858,0,0,0,7.05716,0v-15.315A8.55779,8.55779,0,0,0,131.60973,91.64277Z"/></svg>