<svg id="Layer_1" data-name="Layer 1" xmlns="http://www.w3.org/2000/svg" viewBox="0 0 200 200"><defs><style>.cls-1,.cls-2{fill:#2e77d0;}.cls-2{fill-rule:evenodd;}</style></defs><title>web-bridge app icons</title><path class="cls-1" d="M184.42619,160.03714H120.12077V115.69042h64.138ZM136.867,109.86384V98.85807a15.41546,15.41546,0,0,1,30.813,0v11.00577Zm50.57353,0H173.87608V98.85807c0-11.49131-9.71279-20.87857-21.60259-20.87857s-21.60262,9.38726-21.60262,20.87857v11.00577H116.77153a2.95275,2.95275,0,0,0-3.01431,2.91328v50.17331a2.95276,2.95276,0,0,0,3.01431,2.91329H187.273a2.95275,2.95275,0,0,0,3.01431-2.91329V112.939A2.84741,2.84741,0,0,0,187.4405,109.86384Z"/><path class="cls-2" d="M152.11547,129.00905a7.15183,7.15183,0,0,0-7.17354,7.08743,7.25059,7.25059,0,0,0,4.30413,6.55588v6.20151h5.55948v-6.20151a6.96864,6.96864,0,0,0,4.30414-6.55588A6.88841,6.88841,0,0,0,152.11547,129.00905Z"/><path class="cls-2" d="M154.98284,69.71176V23.45569H41.58385V176.54431l101.15707-.15953.001-.03842c.06661.00485.12354.03859.19154.03859a2.79241,2.79241,0,0,0,0-5.58482c-.01124,0-.02041.00623-.03166.00641l.00017-.00312-95.68039.15954V29.037H149.34507V69.67923c-.001.03132-.018.05745-.018.08912a2.83359,2.83359,0,0,0,5.66718,0C154.99426,69.74827,154.98318,69.73166,154.98284,69.71176Z"/><rect class="cls-1" x="57.18192" y="39.03599" width="82.21426" height="5.66995"/><rect class="cls-1" x="57.18192" y="53.21087" width="82.21426" height="5.66995"/><rect class="cls-1" x="57.18192" y="67.38574" width="39.68964" height="5.66995"/><rect class="cls-1" x="57.18192" y="81.56061" width="28.34975" height="5.66995"/></svg>