<svg id="Layer_1" data-name="Layer 1" xmlns="http://www.w3.org/2000/svg" xmlns:xlink="http://www.w3.org/1999/xlink" viewBox="0 0 32 32"><defs><style>.cls-1{fill:#606060;}.cls-2,.cls-3{fill:#fff;}.cls-3{fill-rule:evenodd;}.cls-4{clip-path:url(#clip-path);}.cls-5{clip-path:url(#clip-path-2);}</style><clipPath id="clip-path"><path class="cls-1" d="M-1272.21461,2969.55362a58.16885,58.16885,0,0,1-58.18182-58.18182,58.16887,58.16887,0,0,1,58.18182-58.18182,58.16884,58.16884,0,0,1,58.18181,58.18182A58.16882,58.16882,0,0,1-1272.21461,2969.55362Zm117.27894-44.47293-7.67556-7.91363a99.11838,99.11838,0,0,0,0-23.03256l7.67556-7.86479c4.57961-4.66513,12.79246-10.84462,10.234-16.731l-10.51542-24.42473c-2.55849-5.88637-12.99712-4.66513-19.67476-4.88506l-11.33417-.39076a108.24662,108.24662,0,0,0-16.98839-16.26693l-.35817-10.82018c-.20468-6.35043,1.10009-16.34014-5.117-18.78261l-25.585-10.13632c-6.1404-2.44247-12.66457,5.49563-17.52565,9.76989l-8.264,7.32753a113.83986,113.83986,0,0,0-24.15212,0l-8.21278-7.32753c-4.86113-4.34757-11.35971-12.21236-17.52567-9.76989l-25.58494,10.03858c-6.166,2.44247-4.86113,12.43228-5.117,18.78271l-.40937,10.79577a108.28489,108.28489,0,0,0-17.06514,16.2425l-11.30855.34186c-6.65209.19538-17.11632-1.05018-19.67482,4.885l-10.61775,24.42484c-2.55849,5.86194,5.75661,12.06586,10.234,16.70657l7.67548,7.88921a99.10471,99.10471,0,0,0,0,23.057l-7.67548,7.86477c-4.55412,4.64071-12.79247,10.82018-10.234,16.70656l10.51541,24.42478c2.5585,5.88637,13.02274,4.66514,19.70041,4.885l11.283.36637a108.243,108.243,0,0,0,17.03957,16.31575l.33261,10.77133c.20468,6.35046-1.10016,16.36462,5.117,18.80709l25.58493,10.13629c6.14039,2.44247,12.639-5.49558,17.5001-9.76992l8.28953-7.32743a113.87072,113.87072,0,0,0,24.10106,0l8.23831,7.32743c4.88669,4.372,11.334,12.21239,17.5,9.76992l25.585-10.03859c6.166-2.44248,4.88669-12.40779,5.117-18.80709l.38377-10.79575a108.30078,108.30078,0,0,0,17.0908-16.24248l11.30844-.34195c6.65216-.1954,17.142,1.05026,19.70048-4.885l10.61772-24.42478C-1142.06653,2935.97414-1150.40713,2929.77025-1154.93567,2925.08069Z"/></clipPath><clipPath id="clip-path-2"><path class="cls-1" d="M-1041.56808,2873.55361a29.08442,29.08442,0,0,1-29.09091-29.09091,29.08444,29.08444,0,0,1,29.09091-29.09091,29.08443,29.08443,0,0,1,29.09091,29.09091A29.08442,29.08442,0,0,1-1041.56808,2873.55361Zm58.63947-22.23646-3.83778-3.95682a49.55919,49.55919,0,0,0,0-11.51628l3.83778-3.93239c2.2898-2.33257,6.39623-5.42232,5.117-8.3655l-5.25771-12.21236c-1.27924-2.94319-6.49856-2.33257-9.83738-2.44253l-5.66708-.19538a54.12337,54.12337,0,0,0-8.4942-8.13347l-.17908-5.41009c-.10234-3.17521.55-8.17007-2.55849-9.3913l-12.79249-5.06816c-3.0702-1.22124-6.33229,2.74781-8.76283,4.88494l-4.132,3.66377a56.91927,56.91927,0,0,0-12.07606,0l-4.10639-3.66377c-2.43057-2.17378-5.67986-6.10618-8.76284-4.88494l-12.79246,5.01929c-3.083,1.22123-2.43057,6.21614-2.5585,9.39135l-.20468,5.39789a54.14156,54.14156,0,0,0-8.53257,8.12125l-5.65428.17093c-3.326.09769-8.55816-.52509-9.83741,2.44247l-5.30887,12.21242c-1.27925,2.931,2.87831,6.03293,5.117,8.35329l3.83774,3.9446a49.5529,49.5529,0,0,0,0,11.52849l-3.83774,3.93238c-2.27706,2.32036-6.39624,5.41009-5.117,8.35328l5.25771,12.2124c1.27924,2.94318,6.51136,2.33257,9.8502,2.44248l5.64148.18318a54.12083,54.12083,0,0,0,8.51978,8.15788l.1663,5.38566c.10234,3.17523-.55007,8.18231,2.55849,9.40355l12.79247,5.06814c3.0702,1.22124,6.31948-2.74779,8.75-4.885l4.14476-3.66371a56.93612,56.93612,0,0,0,12.05054,0l4.11915,3.66371c2.44335,2.186,5.667,6.1062,8.75,4.885l12.79249-5.01929c3.083-1.22124,2.44335-6.2039,2.55849-9.40355l.19189-5.39787a54.15129,54.15129,0,0,0,8.5454-8.12124l5.65422-.171c3.32608-.0977,8.571.52513,9.85024-2.44248l5.30886-12.21239C-976.494,2856.76387-980.66434,2853.66192-982.92861,2851.31715Z"/></clipPath></defs><title>p-share app icons</title><path class="cls-2" d="M29.82312,28.516H16.39721V19.25709H29.78815ZM19.89354,18.04059V15.74277a3.21849,3.21849,0,0,1,6.43325,0v2.29782Zm10.55892,0h-2.832V15.74277a4.51289,4.51289,0,0,0-9.02053,0v2.29782h-2.902a.61649.61649,0,0,0-.62934.60825V29.12419a.61649.61649,0,0,0,.62934.60825H30.41749a.61648.61648,0,0,0,.62934-.60825V18.68263A.59449.59449,0,0,0,30.45246,18.04059Z"/><path class="cls-3" d="M23.07717,22.0378a1.49318,1.49318,0,0,0-1.49771,1.47973,1.5138,1.5138,0,0,0,.89863,1.36876v1.29478h1.16073V24.88629a1.45494,1.45494,0,0,0,.89863-1.36876A1.43819,1.43819,0,0,0,23.07717,22.0378Z"/><path class="cls-3" d="M23.67583,9.6575V0H0V31.96237l21.11992-.03331.00022-.008c.01391.001.02579.00806.04.00806a.583.583,0,0,0,0-1.166l-.00661.00134,0-.00065-19.97649.03331V1.16529H22.49876V9.65071c-.00022.00654-.00376.012-.00376.01861a.59161.59161,0,0,0,1.18322,0Z"/><rect class="cls-2" x="3.25662" y="3.25291" width="17.16498" height="1.18379"/><rect class="cls-2" x="3.25662" y="6.21239" width="17.16498" height="1.18379"/><rect class="cls-2" x="3.25662" y="9.17187" width="8.28654" height="1.18379"/><rect class="cls-2" x="3.25662" y="12.13135" width="5.91896" height="1.18379"/><path class="cls-1" d="M-1272.21461,2969.55362a58.16885,58.16885,0,0,1-58.18182-58.18182,58.16887,58.16887,0,0,1,58.18182-58.18182,58.16884,58.16884,0,0,1,58.18181,58.18182A58.16882,58.16882,0,0,1-1272.21461,2969.55362Zm117.27894-44.47293-7.67556-7.91363a99.11838,99.11838,0,0,0,0-23.03256l7.67556-7.86479c4.57961-4.66513,12.79246-10.84462,10.234-16.731l-10.51542-24.42473c-2.55849-5.88637-12.99712-4.66513-19.67476-4.88506l-11.33417-.39076a108.24662,108.24662,0,0,0-16.98839-16.26693l-.35817-10.82018c-.20468-6.35043,1.10009-16.34014-5.117-18.78261l-25.585-10.13632c-6.1404-2.44247-12.66457,5.49563-17.52565,9.76989l-8.264,7.32753a113.83986,113.83986,0,0,0-24.15212,0l-8.21278-7.32753c-4.86113-4.34757-11.35971-12.21236-17.52567-9.76989l-25.58494,10.03858c-6.166,2.44247-4.86113,12.43228-5.117,18.78271l-.40937,10.79577a108.28489,108.28489,0,0,0-17.06514,16.2425l-11.30855.34186c-6.65209.19538-17.11632-1.05018-19.67482,4.885l-10.61775,24.42484c-2.55849,5.86194,5.75661,12.06586,10.234,16.70657l7.67548,7.88921a99.10471,99.10471,0,0,0,0,23.057l-7.67548,7.86477c-4.55412,4.64071-12.79247,10.82018-10.234,16.70656l10.51541,24.42478c2.5585,5.88637,13.02274,4.66514,19.70041,4.885l11.283.36637a108.243,108.243,0,0,0,17.03957,16.31575l.33261,10.77133c.20468,6.35046-1.10016,16.36462,5.117,18.80709l25.58493,10.13629c6.14039,2.44247,12.639-5.49558,17.5001-9.76992l8.28953-7.32743a113.87072,113.87072,0,0,0,24.10106,0l8.23831,7.32743c4.88669,4.372,11.334,12.21239,17.5,9.76992l25.585-10.03859c6.166-2.44248,4.88669-12.40779,5.117-18.80709l.38377-10.79575a108.30078,108.30078,0,0,0,17.0908-16.24248l11.30844-.34195c6.65216-.1954,17.142,1.05026,19.70048-4.885l10.61772-24.42478C-1142.06653,2935.97414-1150.40713,2929.77025-1154.93567,2925.08069Z"/><g class="cls-4"><rect class="cls-1" x="-1598.0328" y="-4978.08286" width="16651.63659" height="8936.72739"/></g><path class="cls-1" d="M-1041.56808,2873.55361a29.08442,29.08442,0,0,1-29.09091-29.09091,29.08444,29.08444,0,0,1,29.09091-29.09091,29.08443,29.08443,0,0,1,29.09091,29.09091A29.08442,29.08442,0,0,1-1041.56808,2873.55361Zm58.63947-22.23646-3.83778-3.95682a49.55919,49.55919,0,0,0,0-11.51628l3.83778-3.93239c2.2898-2.33257,6.39623-5.42232,5.117-8.3655l-5.25771-12.21236c-1.27924-2.94319-6.49856-2.33257-9.83738-2.44253l-5.66708-.19538a54.12337,54.12337,0,0,0-8.4942-8.13347l-.17908-5.41009c-.10234-3.17521.55-8.17007-2.55849-9.3913l-12.79249-5.06816c-3.0702-1.22124-6.33229,2.74781-8.76283,4.88494l-4.132,3.66377a56.91927,56.91927,0,0,0-12.07606,0l-4.10639-3.66377c-2.43057-2.17378-5.67986-6.10618-8.76284-4.88494l-12.79246,5.01929c-3.083,1.22123-2.43057,6.21614-2.5585,9.39135l-.20468,5.39789a54.14156,54.14156,0,0,0-8.53257,8.12125l-5.65428.17093c-3.326.09769-8.55816-.52509-9.83741,2.44247l-5.30887,12.21242c-1.27925,2.931,2.87831,6.03293,5.117,8.35329l3.83774,3.9446a49.5529,49.5529,0,0,0,0,11.52849l-3.83774,3.93238c-2.27706,2.32036-6.39624,5.41009-5.117,8.35328l5.25771,12.2124c1.27924,2.94318,6.51136,2.33257,9.8502,2.44248l5.64148.18318a54.12083,54.12083,0,0,0,8.51978,8.15788l.1663,5.38566c.10234,3.17523-.55007,8.18231,2.55849,9.40355l12.79247,5.06814c3.0702,1.22124,6.31948-2.74779,8.75-4.885l4.14476-3.66371a56.93612,56.93612,0,0,0,12.05054,0l4.11915,3.66371c2.44335,2.186,5.667,6.1062,8.75,4.885l12.79249-5.01929c3.083-1.22124,2.44335-6.2039,2.55849-9.40355l.19189-5.39787a54.15129,54.15129,0,0,0,8.5454-8.12124l5.65422-.171c3.32608-.0977,8.571.52513,9.85024-2.44248l5.30886-12.21239C-976.494,2856.76387-980.66434,2853.66192-982.92861,2851.31715Z"/><g class="cls-5"><rect class="cls-1" x="-1204.47717" y="-1100.26458" width="8325.81819" height="4468.36364"/></g></svg>